<svg xmlns="http://www.w3.org/2000/svg" xmlns:xlink="http://www.w3.org/1999/xlink" width="480" height="362" viewBox="0 0 480 362" role="img" font-family="Segoe UI, Helvetica, Arial, sans-serif">
<title>Languages in use: public GitHub snapshot, 26 Sep 2026</title>
<style>svg{--bg:#f3f8fc;--ink:#10243c;--muted:#435c75;--accent:#00798e;--line:#d6e3ed;--soft:#d9edf1}
@media(prefers-color-scheme:dark){svg{--bg:#101e31;--ink:#edf5ff;--muted:#b4c6db;--accent:#67e8f9;--line:#30465e;--soft:#21465a}}</style>
<rect x="0" y="0" width="480" height="362" rx="12" fill="var(--bg)"/><text x="26" y="41" font-size="23" fill="var(--ink)" font-weight="650" >Languages in use</text><text x="26" y="68" font-size="14" fill="var(--muted)" font-weight="400" >Share of bytes · public, non-fork repositories</text><text x="26" y="103" font-size="14" fill="var(--ink)" font-weight="500" >Jupyter Notebook</text><text x="453" y="103" font-size="14" fill="var(--muted)" font-weight="400" text-anchor="end">61.2%</text><rect x="26" y="112" width="428" height="5" rx="2" fill="var(--line)"/><rect x="26" y="112" width="261.7760404324338" height="5" rx="2" fill="#0891b2"/><text x="26" y="138" font-size="14" fill="var(--ink)" font-weight="500" >JavaScript</text><text x="453" y="138" font-size="14" fill="var(--muted)" font-weight="400" text-anchor="end">25.9%</text><rect x="26" y="147" width="428" height="5" rx="2" fill="var(--line)"/><rect x="26" y="147" width="111.01710133377634" height="5" rx="2" fill="#38bdf8"/><text x="26" y="173" font-size="14" fill="var(--ink)" font-weight="500" >Python</text><text x="453" y="173" font-size="14" fill="var(--muted)" font-weight="400" text-anchor="end">4.0%</text><rect x="26" y="182" width="428" height="5" rx="2" fill="var(--line)"/><rect x="26" y="182" width="17.184072892420524" height="5" rx="2" fill="#0284c7"/><text x="26" y="208" font-size="14" fill="var(--ink)" font-weight="500" >HTML</text><text x="453" y="208" font-size="14" fill="var(--muted)" font-weight="400" text-anchor="end">2.5%</text><rect x="26" y="217" width="428" height="5" rx="2" fill="var(--line)"/><rect x="26" y="217" width="10.63821802545201" height="5" rx="2" fill="#6366f1"/><text x="26" y="243" font-size="14" fill="var(--ink)" font-weight="500" >CSS</text><text x="453" y="243" font-size="14" fill="var(--muted)" font-weight="400" text-anchor="end">2.2%</text><rect x="26" y="252" width="428" height="5" rx="2" fill="var(--line)"/><rect x="26" y="252" width="9.581672415848038" height="5" rx="2" fill="#14b8a6"/><text x="26" y="278" font-size="14" fill="var(--ink)" font-weight="500" >TypeScript</text><text x="453" y="278" font-size="14" fill="var(--muted)" font-weight="400" text-anchor="end">1.9%</text><rect x="26" y="287" width="428" height="5" rx="2" fill="var(--line)"/><rect x="26" y="287" width="8.108692635187229" height="5" rx="2" fill="#94a3b8"/><rect x="26" y="315" width="428" height="1" rx="0" fill="var(--line)"/><text x="26" y="340" font-size="12" fill="var(--muted)" font-weight="500" letter-spacing="0.6">PUBLIC DATA / 26 SEP 2026</text>
</svg>
